<?xml version="1.0" standalone="no"?>
<!DOCTYPE svg PUBLIC "-//W3C//DTD SVG 20010904//EN"
 "http://www.w3.org/TR/2001/REC-SVG-20010904/DTD/svg10.dtd">
<svg version="1.0" xmlns="http://www.w3.org/2000/svg"
 width="256.000000pt" height="256.000000pt" viewBox="0 0 256.000000 256.000000"
 preserveAspectRatio="xMidYMid meet">
<metadata>
Created by potrace 1.11, written by Peter Selinger 2001-2013
</metadata>
<g transform="translate(0.000000,256.000000) scale(0.100000,-0.100000)"
fill="#000000" stroke="none">
<path d="M923 2543 c9 -2 23 -2 30 0 6 3 -1 5 -18 5 -16 0 -22 -2 -12 -5z"/>
<path d="M988 2543 c6 -2 18 -2 25 0 6 3 1 5 -13 5 -14 0 -19 -2 -12 -5z"/>
<path d="M1078 2533 c7 -3 16 -2 19 1 4 3 -2 6 -13 5 -11 0 -14 -3 -6 -6z"/>
<path d="M875 2499 c-103 -25 -321 -105 -420 -154 -60 -30 -144 -81 -186 -114
-64 -50 -83 -73 -126 -148 -71 -125 -76 -143 -71 -223 7 -86 44 -167 107 -230
48 -48 264 -163 329 -176 20 -4 42 -19 55 -36 12 -17 49 -59 83 -93 33 -35 77
-95 97 -133 47 -89 97 -242 97 -296 0 -55 -28 -137 -87 -254 -42 -82 -55 -98
-118 -147 -81 -62 -152 -133 -189 -189 -43 -64 -33 -159 21 -208 10 -10 48
-24 83 -32 96 -23 174 -9 490 84 91 27 253 74 360 106 107 31 231 73 275 92
79 34 111 42 380 100 156 34 209 51 272 88 54 31 86 90 81 145 -4 45 0 47 36
18 21 -16 26 -17 26 -5 0 8 -8 20 -17 25 -16 9 -14 10 9 11 46 0 40 17 -7 22
-35 4 -55 15 -88 45 -55 51 -160 110 -240 134 -34 10 -112 24 -174 31 l-112
12 -7 55 c-4 30 -3 102 2 160 5 59 9 156 8 216 -1 101 -5 120 -43 235 -52 157
-126 309 -191 395 -28 37 -73 99 -99 139 -119 175 -196 243 -339 295 -91 34
-227 48 -297 30z m581 -337 c56 -69 154 -209 154 -220 0 -7 -17 -12 -42 -12
-61 0 -206 -25 -323 -55 -218 -57 -443 -198 -540 -340 -23 -33 -46 -55 -57
-55 -10 0 -51 9 -90 20 -40 11 -83 20 -95 20 -30 0 -30 25 -2 108 30 90 156
252 244 314 75 52 179 108 203 108 11 0 55 18 98 41 101 53 140 67 254 89 145
28 160 26 196 -18z m230 -594 c64 -13 110 -54 121 -106 16 -76 0 -251 -23
-245 -5 1 -27 9 -49 17 -26 10 -79 15 -154 16 -115 0 -132 8 -61 28 19 6 27
11 18 11 -9 1 -66 -19 -125 -43 -59 -24 -140 -55 -178 -70 -39 -14 -100 -44
-138 -65 -37 -22 -67 -37 -67 -33 0 4 33 40 73 81 46 48 58 63 32 43 -51 -39
-125 -110 -198 -191 -32 -35 -59 -62 -61 -60 -1 2 -17 51 -36 108 l-33 104 23
45 c31 58 79 95 114 86 14 -3 26 -8 26 -11 0 -2 -13 -21 -29 -41 -39 -49 -47
-82 -27 -121 9 -17 18 -31 19 -31 1 0 38 34 81 75 43 42 113 98 154 125 42 28
72 50 67 50 -19 0 -91 -47 -192 -123 -103 -77 -113 -79 -113 -27 0 25 72 100
96 100 14 0 16 2 6 9 -10 6 2 18 45 44 86 54 93 60 38 33 -27 -13 -67 -36 -88
-50 -28 -19 -45 -24 -67 -19 -17 3 -29 11 -27 17 4 13 93 72 216 144 183 106
358 138 537 100z m301 -654 c174 -36 336 -107 378 -166 35 -50 10 -131 -57
-182 -67 -50 -122 -67 -296 -91 -61 -8 -45 9 33 35 57 19 92 40 68 40 -7 0
-195 -73 -438 -171 -49 -20 -328 -116 -475 -164 -103 -33 -297 -81 -411 -101
-136 -23 -250 -5 -288 46 -45 62 -36 103 41 179 52 52 198 152 276 189 32 15
73 37 93 49 40 25 257 106 404 151 251 77 519 128 620 118 41 -4 55 -3 45 4
-8 5 -52 10 -96 10 -74 0 -150 -12 -344 -54 -36 -8 -114 -22 -175 -31 -60 -9
-157 -31 -215 -50 -112 -35 -179 -51 -169 -41 18 19 245 110 362 145 192 58
300 82 402 91 143 11 161 11 242 -6z"/>
<path d="M1568 1293 c6 -2 18 -2 25 0 6 3 1 5 -13 5 -14 0 -19 -2 -12 -5z"/>
<path d="M1644 654 c-268 -39 -421 -84 -630 -185 -103 -50 -187 -119 -182
-149 5 -26 55 -43 90 -31 17 6 54 11 82 11 51 0 109 13 135 29 9 6 10 14 3 27
-13 25 -23 94 -13 94 4 0 13 -16 20 -35 14 -41 31 -46 31 -9 0 14 4 23 10 19
13 -8 13 -52 0 -60 -16 -10 -11 -22 11 -28 12 -3 33 2 46 11 24 15 25 20 21
84 -5 64 4 100 16 61 11 -40 20 -89 21 -108 0 -13 5 -19 15 -16 8 2 28 6 43 9
23 4 28 9 27 31 -3 39 -1 51 9 51 5 0 11 -13 15 -30 3 -19 12 -30 23 -30 9 0
101 27 204 60 103 33 191 60 197 60 11 0 9 71 -3 108 -7 20 -4 22 25 22 26 0
30 -3 25 -19 -3 -11 -1 -22 5 -26 15 -9 40 13 40 36 0 26 46 26 53 0 5 -22
-21 -50 -68 -70 -16 -8 -25 -16 -18 -18 15 -5 47 11 95 49 26 20 35 34 31 48
-7 24 2 23 -118 25 -61 1 -163 -7 -261 -21z m141 -61 c4 -21 11 -43 16 -49 6
-8 4 -14 -7 -18 -24 -9 -34 11 -34 67 0 55 14 55 25 0z m-124 -6 c8 -17 15
-48 15 -67 -1 -30 -5 -35 -34 -44 -39 -11 -42 -8 -52 46 -5 24 -12 51 -16 62
-5 14 -3 17 7 14 8 -2 19 -23 24 -46 6 -23 16 -47 23 -54 22 -22 27 3 9 51 -9
27 -17 54 -17 60 0 23 26 9 41 -22z m-201 -31 c0 -13 7 -43 15 -66 16 -45 13
-60 -11 -60 -9 0 -14 10 -14 29 0 15 -3 49 -6 75 -5 31 -3 46 5 46 6 0 11 -11
11 -24z m-106 -57 c11 -55 7 -99 -8 -99 -21 0 -29 35 -21 86 7 51 20 57 29 13z
m-264 -100 c0 -11 -4 -17 -10 -14 -5 3 -10 15 -10 26 0 11 5 17 10 14 6 -3 10
-15 10 -26z m155 -2 c0 -26 -20 -25 -23 2 -3 16 1 22 10 19 7 -3 13 -12 13
-21z m-241 -12 c-4 -8 -8 -15 -10 -15 -2 0 -4 7 -4 15 0 8 4 15 10 15 5 0 7
-7 4 -15z"/>
<path d="M1355 2410 c10 -11 20 -20 23 -20 3 0 -3 9 -13 20 -10 11 -20 20 -23
20 -3 0 3 -9 13 -20z"/>
<path d="M450 2390 c-8 -5 -10 -10 -5 -10 6 0 17 5 25 10 8 5 11 10 5 10 -5 0
-17 -5 -25 -10z"/>
<path d="M1400 2376 c0 -2 8 -10 18 -17 15 -13 16 -12 3 4 -13 16 -21 21 -21
13z"/>
<path d="M384 2354 c-18 -14 -18 -15 4 -4 12 6 22 13 22 15 0 8 -5 6 -26 -11z"/>
<path d="M317 2315 c-20 -14 -37 -28 -37 -31 0 -2 18 8 40 22 35 23 47 34 37
34 -1 0 -19 -11 -40 -25z"/>
<path d="M1460 2305 c13 -14 26 -25 28 -25 3 0 -5 11 -18 25 -13 14 -26 25
-28 25 -3 0 5 -11 18 -25z"/>
<path d="M249 2263 c-13 -16 -12 -17 4 -4 9 7 17 15 17 17 0 8 -8 3 -21 -13z"/>
<path d="M204 2228 l-19 -23 23 19 c21 18 27 26 19 26 -2 0 -12 -10 -23 -22z"/>
<path d="M149 2183 c-13 -16 -12 -17 4 -4 9 7 17 15 17 17 0 8 -8 3 -21 -13z"/>
<path d="M122 2148 c-14 -18 -43 -78 -38 -78 2 0 16 20 29 45 25 45 29 57 9
33z"/>
<path d="M1595 2110 c10 -11 20 -20 23 -20 3 0 -3 9 -13 20 -10 11 -20 20 -23
20 -3 0 3 -9 13 -20z"/>
<path d="M1620 2076 c0 -2 8 -10 18 -17 15 -13 16 -12 3 4 -13 16 -21 21 -21
13z"/>
<path d="M1680 1990 c6 -11 13 -20 16 -20 2 0 0 9 -6 20 -6 11 -13 20 -16 20
-2 0 0 -9 6 -20z"/>
<path d="M1721 1920 c14 -31 19 -36 19 -24 0 6 -7 19 -16 30 -14 18 -14 18 -3
-6z"/>
<path d="M23 1875 c0 -27 2 -38 4 -22 2 15 2 37 0 50 -2 12 -4 0 -4 -28z"/>
<path d="M1746 1867 c3 -10 9 -15 12 -12 3 3 0 11 -7 18 -10 9 -11 8 -5 -6z"/>
<path d="M1790 1775 c0 -5 5 -17 10 -25 5 -8 10 -10 10 -5 0 6 -5 17 -10 25
-5 8 -10 11 -10 5z"/>
<path d="M115 1640 c10 -11 20 -20 23 -20 3 0 -3 9 -13 20 -10 11 -20 20 -23
20 -3 0 3 -9 13 -20z"/>
<path d="M180 1576 c0 -2 8 -10 18 -17 15 -13 16 -12 3 4 -13 16 -21 21 -21
13z"/>
<path d="M330 1486 c0 -2 7 -7 16 -10 8 -3 12 -2 9 4 -6 10 -25 14 -25 6z"/>
<path d="M1881 1464 c0 -11 3 -14 6 -6 3 7 2 16 -1 19 -3 4 -6 -2 -5 -13z"/>
<path d="M370 1466 c0 -2 7 -7 16 -10 8 -3 12 -2 9 4 -6 10 -25 14 -25 6z"/>
<path d="M420 1440 c8 -5 20 -10 25 -10 6 0 3 5 -5 10 -8 5 -19 10 -25 10 -5
0 -3 -5 5 -10z"/>
<path d="M540 1376 c0 -2 8 -10 18 -17 15 -13 16 -12 3 4 -13 16 -21 21 -21
13z"/>
<path d="M570 1337 c0 -2 15 -16 33 -33 l32 -29 -29 33 c-28 30 -36 37 -36 29z"/>
<path d="M1881 1324 c0 -11 3 -14 6 -6 3 7 2 16 -1 19 -3 4 -6 -2 -5 -13z"/>
<path d="M1872 1225 c0 -16 2 -22 5 -12 2 9 2 23 0 30 -3 6 -5 -1 -5 -18z"/>
<path d="M717 1145 c9 -19 18 -33 21 -31 4 5 -26 66 -33 66 -3 0 3 -16 12 -35z"/>
<path d="M1870 1026 c0 -8 4 -17 9 -20 5 -4 7 3 4 14 -6 23 -13 26 -13 6z"/>
<path d="M1988 993 c7 -3 16 -2 19 1 4 3 -2 6 -13 5 -11 0 -14 -3 -6 -6z"/>
<path d="M2058 983 c7 -3 16 -2 19 1 4 3 -2 6 -13 5 -11 0 -14 -3 -6 -6z"/>
<path d="M2241 926 c2 -2 15 -9 29 -15 24 -11 24 -11 6 3 -16 13 -49 24 -35
12z"/>
<path d="M2320 887 c0 -2 19 -19 43 -37 23 -19 36 -26 28 -17 -15 19 -71 61
-71 54z"/>
<path d="M801 864 c0 -11 3 -14 6 -6 3 7 2 16 -1 19 -3 4 -6 -2 -5 -13z"/>
<path d="M2422 804 c9 -9 21 -15 27 -13 6 2 -2 10 -17 17 -25 11 -25 11 -10
-4z"/>
<path d="M2520 719 c-6 -11 -10 -25 -8 -30 2 -5 8 4 15 21 13 34 9 40 -7 9z"/>
<path d="M645 554 c-30 -27 -32 -31 -9 -16 28 19 62 53 53 52 -2 -1 -22 -17
-44 -36z"/>
<path d="M2389 533 l-34 -38 38 34 c20 19 37 36 37 38 0 8 -8 0 -41 -34z"/>
<path d="M574 498 l-19 -23 23 19 c21 18 27 26 19 26 -2 0 -12 -10 -23 -22z"/>
<path d="M2310 480 c-9 -6 -10 -10 -3 -10 6 0 15 5 18 10 8 12 4 12 -15 0z"/>
<path d="M495 428 l-40 -43 43 40 c39 36 47 45 39 45 -2 0 -21 -19 -42 -42z"/>
<path d="M1978 393 c7 -3 16 -2 19 1 4 3 -2 6 -13 5 -11 0 -14 -3 -6 -6z"/>
<path d="M438 363 c-18 -21 -31 -43 -25 -43 2 0 13 14 25 30 25 33 24 41 0 13z"/>
<path d="M1740 330 c-9 -6 -10 -10 -3 -10 6 0 15 5 18 10 8 12 4 12 -15 0z"/>
<path d="M430 77 c14 -16 34 -33 45 -39 21 -11 20 -10 -35 37 l-35 30 25 -28z"/>
<path d="M888 63 c7 -3 16 -2 19 1 4 3 -2 6 -13 5 -11 0 -14 -3 -6 -6z"/>
<path d="M758 33 c7 -3 16 -2 19 1 4 3 -2 6 -13 5 -11 0 -14 -3 -6 -6z"/>
<path d="M538 13 c7 -3 16 -2 19 1 4 3 -2 6 -13 5 -11 0 -14 -3 -6 -6z"/>
</g>
</svg>
